<svg version="1.2" xmlns="http://www.w3.org/2000/svg" viewBox="0 0 370 370" width="370" height="370"><style>.a{fill:#ff961a}.b{fill:none;stroke:#ff961a;stroke-miterlimit:100;stroke-width:20}</style><path class="a" d="m174.8 269.1q-30.1 0-47.7-22.4-4.7-5.5 1-10l4.6-3.7q5.2-4.5 9.6 0.8 12.8 16.4 31.8 16.4 12.9 0 21.7-9 8.8-9.2 8.8-25.2v-107.5q0-7.6 7.1-7.6h6.5q7 0 7 7.6v107.5q0 10.4-2.7 19.2-2.8 8.8-7.5 15-4.7 6.3-11.2 10.6-6.3 4.2-13.6 6.3-7.3 2-15.4 2z"/><path class="b" d="m185 357c-95.7 0-173-77.3-173-173 0-95.7 77.3-173 173-173 95.7 0 173 77.3 173 173 0 95.7-77.3 173-173 173z"/></svg>